<svg width="18" height="20" fill="none" xmlns="http://www.w3.org/2000/svg"><path d="M16.071 2.5h-1.928V.469A.477.477 0 0013.66 0h-.322a.477.477 0 00-.482.469V2.5H5.143V.469A.477.477 0 004.66 0h-.322a.477.477 0 00-.482.469V2.5H1.93C.864 2.5 0 3.34 0 4.375v13.75C0 19.16.864 20 1.929 20H16.07c1.066 0 1.93-.84 1.93-1.875V4.375C18 3.34 17.136 2.5 16.071 2.5zM1.93 3.75h14.14c.354 0 .643.281.643.625V6.25H1.286V4.375c0-.344.289-.625.643-.625zm14.142 15H1.93a.636.636 0 01-.643-.625V7.5h15.428v10.625a.636.636 0 01-.643.625zM5.946 12.5H4.34a.477.477 0 01-.482-.469V10.47c0-.258.217-.469.482-.469h1.607c.266 0 .483.21.483.469v1.562a.477.477 0 01-.483.469zm3.858 0H8.196a.477.477 0 01-.482-.469V10.47c0-.258.217-.469.482-.469h1.608c.265 0 .482.21.482.469v1.562a.477.477 0 01-.482.469zm3.857 0h-1.607a.477.477 0 01-.483-.469V10.47c0-.258.217-.469.483-.469h1.607c.265 0 .482.21.482.469v1.562a.477.477 0 01-.482.469zm-3.857 3.75H8.196a.477.477 0 01-.482-.469V14.22c0-.258.217-.469.482-.469h1.608c.265 0 .482.21.482.469v1.562a.477.477 0 01-.482.469zm-3.858 0H4.34a.477.477 0 01-.482-.469V14.22c0-.258.217-.469.482-.469h1.607c.266 0 .483.21.483.469v1.562a.477.477 0 01-.483.469zm7.715 0h-1.607a.477.477 0 01-.483-.469V14.22c0-.258.217-.469.483-.469h1.607c.265 0 .482.21.482.469v1.562a.477.477 0 01-.482.469z" fill="#DDD"/></svg>