<svg width="29" height="39" viewBox="0 0 29 39" fill="none" xmlns="http://www.w3.org/2000/svg">
<path d="M14.4995 7.30849C10.5021 7.30849 7.24946 10.5892 7.24946 14.621C7.24946 18.6528 10.5021 21.9335 14.4995 21.9335C18.4968 21.9335 21.7495 18.6528 21.7495 14.621C21.7495 10.5892 18.4975 7.30849 14.4995 7.30849ZM14.4995 19.496C11.8343 19.496 9.66612 17.3091 9.66612 14.621C9.66612 11.9329 11.8343 9.74599 14.4995 9.74599C17.1646 9.74599 19.3328 11.9329 19.3328 14.621C19.3328 17.3091 17.1646 19.496 14.4995 19.496ZM27.7632 20.7437C28.825 19.6537 29.2426 18.0525 28.856 16.5649C28.3734 14.7215 28.3734 15.0072 28.856 13.1608C29.2434 11.6739 28.825 10.0735 27.7632 8.98198C26.4355 7.63222 26.5873 7.86302 26.1085 6.04251C25.7196 4.54726 24.5702 3.3704 23.1088 2.96974C21.3492 2.48833 21.5516 2.62087 20.2579 1.2772C19.184 0.178799 17.6056 -0.252334 16.1398 0.14833C14.365 0.644209 14.6218 0.636591 12.8569 0.14833C11.4031 -0.256143 9.8149 0.178798 8.74099 1.27948C7.43448 2.62544 7.66784 2.48071 5.89235 2.96974C4.42951 3.3704 3.28008 4.54726 2.89039 6.04099C2.41008 7.87216 2.55961 7.63069 1.23573 8.98274C0.17391 10.0735 -0.243721 11.6747 0.143701 13.1623C0.626279 15.0034 0.626279 14.7177 0.143701 16.5664C-0.243721 18.0533 0.174665 19.6537 1.23649 20.7452C2.56414 22.095 2.41235 21.8642 2.89115 23.6847C3.04295 24.2666 3.33748 24.7785 3.69318 25.2371L0.0900815 34.1781C-0.235413 34.9832 0.35516 35.8569 1.20703 35.8569C1.24857 35.8569 0.987269 35.8661 5.23381 35.7023L7.97144 38.6189C8.21461 38.8779 8.5318 38.9998 8.84597 38.9998C9.31193 38.9998 9.76959 38.7309 9.96821 38.2411L13.9293 28.4127C14.299 28.2848 14.7005 28.2846 15.0704 28.4119L19.0307 38.2411C19.2286 38.7309 19.687 38.9998 20.1529 38.9998C20.4671 38.9998 20.7843 38.8779 21.0275 38.6189L23.7651 35.7031C28.0116 35.8668 27.7503 35.8577 27.7919 35.8577C28.6438 35.8577 29.2343 34.984 28.9088 34.1789L25.3065 25.2386C25.6622 24.78 25.9567 24.2682 26.1085 23.687C26.5888 21.8543 26.4393 22.0957 27.7632 20.7437ZM8.43664 35.5682C6.73063 33.7508 7.18602 34.236 6.23672 33.2244C4.85469 33.2778 5.52305 33.2519 3.03388 33.3486L5.71865 26.6851C5.77831 26.7049 5.82967 26.7422 5.89084 26.759C7.54248 27.2053 7.43599 27.1094 8.27654 27.9709C9.02722 28.7432 9.99766 29.1569 10.9923 29.2277L8.43664 35.5682ZM25.9658 33.3478C23.4804 33.2519 24.1435 33.2778 22.7629 33.2244C21.8144 34.2352 22.269 33.7508 20.563 35.5682L18.0029 29.2155C19.0005 29.1462 19.9709 28.7425 20.7231 27.9701C21.5848 27.0857 21.4655 27.1939 23.1088 26.7582C23.17 26.7415 23.2214 26.7041 23.281 26.6851L25.9658 33.3478ZM23.7719 23.0654C23.602 23.719 23.1043 24.2331 22.4714 24.4068C20.6876 24.8829 20.3274 24.8981 18.9997 26.2631C18.3956 26.8808 17.475 26.9951 16.753 26.5282C15.3838 25.6568 13.6144 25.656 12.2452 26.5297C11.5277 26.989 10.6026 26.8816 9.99841 26.2616C8.68586 24.9149 8.32789 24.8943 6.52672 24.406C5.89386 24.2324 5.39618 23.7182 5.22625 23.0639C4.61756 20.7307 4.65758 20.7642 2.95836 19.0367C2.49089 18.556 2.30662 17.8469 2.47956 17.1849C3.09506 14.864 3.09883 14.8632 2.47956 12.5423C2.30737 11.8803 2.49164 11.1712 2.95836 10.6913C4.65154 8.96218 4.61529 9.01093 5.22625 6.66102C5.39618 6.00747 5.89386 5.49331 6.52672 5.32116C8.85201 4.68056 8.76818 4.72702 10.4636 2.98878C10.8563 2.58431 11.5073 2.30628 12.2217 2.50052C14.5221 3.13884 14.476 3.14036 16.7741 2.50052C17.3927 2.32761 18.0723 2.51499 18.5345 2.98573C20.2179 4.72778 20.1862 4.69503 22.4737 5.32116C23.1035 5.49407 23.602 6.00823 23.7719 6.66255C24.3806 8.99569 24.3406 8.96218 26.0398 10.6898C26.5073 11.1704 26.6915 11.8796 26.5186 12.5415C25.9001 14.8663 25.9023 14.8678 26.5186 17.1842C26.6908 17.8461 26.5065 18.5553 26.0398 19.0351C24.3474 20.765 24.3829 20.7155 23.7719 23.0654Z" fill="#92BC58"/>
</svg>
