<svg width="30" height="35" viewBox="0 0 30 35" fill="none" xmlns="http://www.w3.org/2000/svg">
<path d="M30 26.7969V1.64062C30 0.731445 29.2835 0 28.3929 0H5.35714C2.39732 0 0 2.44727 0 5.46875V30.625C0 33.0415 1.91853 35 4.28571 35H29.1964C29.6384 35 30 34.6309 30 34.1797V33.6328C30 33.1816 29.6384 32.8125 29.1964 32.8125H28.9754C28.7076 31.4316 28.7612 29.415 29.0022 28.3145C29.5848 28.0684 30 27.4805 30 26.7969ZM27.0737 32.8125H4.28571C3.10246 32.8125 2.14286 31.8329 2.14286 30.625C2.14286 29.4171 3.10246 28.4375 4.28571 28.4375H27.0737C26.8795 29.7227 26.8661 31.418 27.0737 32.8125ZM27.8571 26.25H4.28571C3.50089 26.25 2.77567 26.4811 2.14286 26.857V5.46875C2.14286 3.65723 3.58259 2.1875 5.35714 2.1875H27.8571V26.25ZM15 22.9688C19.7337 22.9688 23.5714 19.0511 23.5714 14.2188C23.5714 9.38643 19.7337 5.46875 15 5.46875C10.2663 5.46875 6.42857 9.38643 6.42857 14.2188C6.42857 19.0511 10.2663 22.9688 15 22.9688ZM21.3201 13.125H18.7025C18.6027 11.2772 18.2645 9.61475 17.7509 8.31182C19.6065 9.21689 20.9665 10.9908 21.3201 13.125ZM18.7025 15.3125H21.3201C20.9658 17.4467 19.6065 19.2206 17.7509 20.1257C18.2652 18.8228 18.6027 17.1603 18.7025 15.3125ZM15 7.7458C15.515 8.25508 16.3908 10.0987 16.569 13.125H13.4304C13.6092 10.0994 14.485 8.25508 15 7.7458ZM16.569 15.3125C16.3908 18.3381 15.515 20.1824 15 20.6917C14.485 20.1824 13.6092 18.3388 13.431 15.3125H16.569ZM12.2491 8.31182C11.7348 9.61475 11.3973 11.2772 11.2975 13.125H8.67991C9.03348 10.9908 10.3935 9.21689 12.2491 8.31182ZM11.2975 15.3125C11.3973 17.1603 11.7355 18.8228 12.2491 20.1257C10.3935 19.2206 9.03348 17.4467 8.67991 15.3125H11.2975Z" fill="#92BC58"/>
</svg>
