<svg width="28" height="33" viewBox="0 0 28 33" fill="none" xmlns="http://www.w3.org/2000/svg">
<path d="M9 5.15625H7C5.89375 5.15625 5 6.08437 5 7.21875V9.28125C5 10.4156 5.89375 11.3438 7 11.3438H9C10.1062 11.3438 11 10.4156 11 9.28125V7.21875C11 6.08437 10.1062 5.15625 9 5.15625ZM9 9.28125H7V7.21875H9V9.28125ZM26 0H2C0.89375 0 0 0.928125 0 2.0625V30.9375C0 32.0719 0.89375 33 2 33H26C27.1063 33 28 32.0719 28 30.9375V2.0625C28 0.928125 27.1063 0 26 0ZM26 30.9375H2V2.0625H26V30.9375ZM21.5 15.4688H13.5C13.225 15.4688 13 15.7008 13 15.9844V17.0156C13 17.2992 13.225 17.5312 13.5 17.5312H21.5C21.775 17.5312 22 17.2992 22 17.0156V15.9844C22 15.7008 21.775 15.4688 21.5 15.4688ZM9 21.6562H7C5.89375 21.6562 5 22.5844 5 23.7188V25.7812C5 26.9156 5.89375 27.8438 7 27.8438H9C10.1062 27.8438 11 26.9156 11 25.7812V23.7188C11 22.5844 10.1062 21.6562 9 21.6562ZM9 25.7812H7V23.7188H9V25.7812ZM21.5 23.7188H13.5C13.225 23.7188 13 23.9508 13 24.2344V25.2656C13 25.5492 13.225 25.7812 13.5 25.7812H21.5C21.775 25.7812 22 25.5492 22 25.2656V24.2344C22 23.9508 21.775 23.7188 21.5 23.7188ZM21.5 7.21875H13.5C13.225 7.21875 13 7.45078 13 7.73438V8.76562C13 9.04922 13.225 9.28125 13.5 9.28125H21.5C21.775 9.28125 22 9.04922 22 8.76562V7.73438C22 7.45078 21.775 7.21875 21.5 7.21875ZM9 13.4062H7C5.89375 13.4062 5 14.3344 5 15.4688V17.5312C5 18.6656 5.89375 19.5938 7 19.5938H9C10.1062 19.5938 11 18.6656 11 17.5312V15.4688C11 14.3344 10.1062 13.4062 9 13.4062ZM9 17.5312H7V15.4688H9V17.5312Z" fill="#92BC58"/>
</svg>
