<svg width="44" height="31" viewBox="0 0 44 31" fill="none" xmlns="http://www.w3.org/2000/svg">
<path d="M33 11.125C33.6527 11.125 34.2907 10.9326 34.8334 10.572C35.3761 10.2115 35.799 9.699 36.0488 9.09943C36.2986 8.49986 36.3639 7.84011 36.2366 7.20361C36.1093 6.56711 35.795 5.98245 35.3335 5.52356C34.8719 5.06466 34.2839 4.75216 33.6438 4.62555C33.0037 4.49894 32.3401 4.56392 31.7371 4.81227C31.1341 5.06062 30.6188 5.48119 30.2561 6.02078C29.8935 6.56038 29.7 7.19478 29.7 7.84375C29.7 8.71399 30.0477 9.54859 30.6665 10.1639C31.2854 10.7793 32.1248 11.125 33 11.125ZM33 6.75C33.2176 6.75 33.4302 6.81415 33.6111 6.93433C33.792 7.05451 33.933 7.22533 34.0163 7.42519C34.0995 7.62505 34.1213 7.84496 34.0789 8.05713C34.0364 8.2693 33.9317 8.46418 33.7778 8.61715C33.624 8.77011 33.428 8.87428 33.2146 8.91648C33.0012 8.95869 32.78 8.93703 32.579 8.85424C32.3781 8.77146 32.2063 8.63127 32.0854 8.45141C31.9645 8.27154 31.9 8.06007 31.9 7.84375C31.9 7.55367 32.0159 7.27547 32.2222 7.07035C32.4285 6.86523 32.7083 6.75 33 6.75ZM33 13.3125C31.6946 13.3125 30.4186 13.6974 29.3332 14.4185C28.2479 15.1396 27.4019 16.1645 26.9024 17.3636C26.4029 18.5628 26.2722 19.8823 26.5268 21.1553C26.7815 22.4283 27.4101 23.5976 28.3331 24.5154C29.2561 25.4332 30.4321 26.0582 31.7124 26.3114C32.9927 26.5646 34.3197 26.4347 35.5257 25.938C36.7317 25.4413 37.7625 24.6001 38.4877 23.5209C39.2129 22.4417 39.6 21.1729 39.6 19.875C39.5982 18.1351 38.9022 16.4669 37.6649 15.2366C36.4276 14.0063 34.7499 13.3143 33 13.3125ZM33 24.25C32.1298 24.25 31.2791 23.9934 30.5555 23.5127C29.8319 23.0319 29.268 22.3487 28.9349 21.5492C28.6019 20.7498 28.5148 19.8701 28.6845 19.0215C28.8543 18.1728 29.2734 17.3933 29.8887 16.7814C30.5041 16.1696 31.2881 15.7529 32.1416 15.5841C32.9951 15.4153 33.8798 15.5019 34.6838 15.833C35.4878 16.1642 36.175 16.7249 36.6585 17.4444C37.1419 18.1638 37.4 19.0097 37.4 19.875C37.3985 21.0349 36.9345 22.1468 36.1097 22.967C35.2848 23.7872 34.1665 24.2486 33 24.25ZM33 18.2344C32.6737 18.2344 32.3547 18.3306 32.0833 18.5109C31.812 18.6911 31.6005 18.9474 31.4756 19.2472C31.3507 19.5469 31.318 19.8768 31.3817 20.1951C31.4454 20.5133 31.6025 20.8057 31.8333 21.0351C32.064 21.2645 32.358 21.4208 32.6781 21.4841C32.9982 21.5474 33.3299 21.5149 33.6314 21.3907C33.9329 21.2666 34.1906 21.0563 34.3719 20.7865C34.5532 20.5167 34.65 20.1995 34.65 19.875C34.65 19.4399 34.4762 19.0226 34.1667 18.7149C33.8573 18.4072 33.4376 18.2344 33 18.2344ZM40.7 0.1875H25.3C24.4248 0.1875 23.5854 0.533202 22.9665 1.14856C22.3477 1.76391 22 2.59851 22 3.46875V27.5312C22 28.4015 22.3477 29.2361 22.9665 29.8514C23.5854 30.4668 24.4248 30.8125 25.3 30.8125H40.7C41.5752 30.8125 42.4146 30.4668 43.0335 29.8514C43.6523 29.2361 44 28.4015 44 27.5312V3.46875C44 2.59851 43.6523 1.76391 43.0335 1.14856C42.4146 0.533202 41.5752 0.1875 40.7 0.1875ZM41.8 27.5312C41.8 27.8213 41.6841 28.0995 41.4778 28.3046C41.2715 28.5098 40.9917 28.625 40.7 28.625H25.3C25.0083 28.625 24.7285 28.5098 24.5222 28.3046C24.3159 28.0995 24.2 27.8213 24.2 27.5312V3.46875C24.2 3.17867 24.3159 2.90047 24.5222 2.69535C24.7285 2.49023 25.0083 2.375 25.3 2.375H40.7C40.9917 2.375 41.2715 2.49023 41.4778 2.69535C41.6841 2.90047 41.8 3.17867 41.8 3.46875V27.5312ZM7.15 28.625C7.00413 28.625 6.86424 28.6826 6.76109 28.7852C6.65795 28.8877 6.6 29.0268 6.6 29.1719V30.2656C6.6 30.4107 6.65795 30.5498 6.76109 30.6523C6.86424 30.7549 7.00413 30.8125 7.15 30.8125H20.9282C20.4282 30.1686 20.0806 29.4209 19.9114 28.625H7.15ZM0 2.375V22.0625C0 22.6427 0.231785 23.1991 0.644365 23.6093C1.05695 24.0195 1.61652 24.25 2.2 24.25H19.8V22.0625H2.2V2.375H19.9114C20.0806 1.5791 20.4282 0.83139 20.9282 0.1875H2.2C1.61652 0.1875 1.05695 0.417968 0.644365 0.828204C0.231785 1.23844 0 1.79484 0 2.375H0Z" fill="#92BC58"/>
</svg>
