<svg width="35" height="35" viewBox="0 0 35 35" fill="none" xmlns="http://www.w3.org/2000/svg">
<path d="M0.546875 17.5C0.546875 26.8652 8.13477 34.4531 17.5 34.4531C26.8652 34.4531 34.4531 26.8652 34.4531 17.5C34.4531 8.13477 26.8652 0.546875 17.5 0.546875C8.13477 0.546875 0.546875 8.13477 0.546875 17.5ZM17.5 2.73438C25.6143 2.73438 32.2656 9.30371 32.2656 17.5C32.2656 25.6143 25.6963 32.2656 17.5 32.2656C9.38574 32.2656 2.73438 25.6963 2.73438 17.5C2.73438 9.38574 9.30371 2.73438 17.5 2.73438ZM15.3125 10.9375L21.875 17.5L15.3125 24.0625V10.9375ZM13.125 24.0625C13.125 26.0039 15.4834 26.9883 16.8574 25.6074L23.4199 19.0449C24.2744 18.1904 24.2744 16.8027 23.4199 15.9482L16.8574 9.38574C15.4834 8.01172 13.125 8.98242 13.125 10.9307V24.0625Z" fill="#92BC58"/>
</svg>
