<svg width="40" height="35" viewBox="0 0 40 35" fill="none" xmlns="http://www.w3.org/2000/svg">
<path d="M36.6667 0H3.33333C1.49306 0 0 1.46973 0 3.28125V22.9688C0 24.7803 1.49306 26.25 3.33333 26.25H16.6667L15 32.8125H10C9.38889 32.8125 8.88889 33.3047 8.88889 33.9062C8.88889 34.5078 9.38889 35 10 35H30C30.6111 35 31.1111 34.5078 31.1111 33.9062C31.1111 33.3047 30.6111 32.8125 30 32.8125H25L23.3333 26.25H36.6667C38.5069 26.25 40 24.7803 40 22.9688V3.28125C40 1.46973 38.5069 0 36.6667 0ZM17.2917 32.8125L18.4028 28.4375H21.5972L22.7083 32.8125H17.2917ZM37.7778 22.9688C37.7778 23.5703 37.2778 24.0625 36.6667 24.0625H3.33333C2.72222 24.0625 2.22222 23.5703 2.22222 22.9688V19.6875H37.7778V22.9688ZM37.7778 17.5H2.22222V3.28125C2.22222 2.67969 2.72222 2.1875 3.33333 2.1875H36.6667C37.2778 2.1875 37.7778 2.67969 37.7778 3.28125V17.5Z" fill="#92BC58"/>
</svg>
